<?xml version="1.0" standalone="no"?>
<!DOCTYPE svg PUBLIC "-//W3C//DTD SVG 20010904//EN"
 "http://www.w3.org/TR/2001/REC-SVG-20010904/DTD/svg10.dtd">
<svg version="1.0" xmlns="http://www.w3.org/2000/svg"
 width="260.000000pt" height="260.000000pt" viewBox="0 0 260.000000 260.000000"
 preserveAspectRatio="xMidYMid meet">
<metadata>
Created by potrace 1.14, written by Peter Selinger 2001-2017
</metadata>
<g transform="translate(0.000000,260.000000) scale(0.100000,-0.100000)"
fill="#000000" stroke="none">
<path d="M609 2381 c-1 -11 -1 -32 -1 -46 0 -14 0 -60 1 -104 l1 -78 79 -2
c88 -2 101 -4 179 -26 119 -35 182 -95 208 -201 9 -35 18 -1424 9 -1424 -21 0
-137 56 -194 95 -112 74 -207 191 -240 297 l-12 36 -72 4 c-40 2 -100 2 -135
0 l-62 -3 5 -30 c14 -79 61 -188 121 -280 46 -70 161 -185 237 -238 79 -54
227 -120 332 -147 86 -23 122 -27 260 -28 88 0 174 2 190 6 91 19 129 30 196
54 130 47 254 123 355 221 59 56 154 176 154 194 0 5 -70 9 -155 9 l-156 0
-64 -53 c-122 -101 -262 -157 -432 -173 l-73 -6 0 602 0 602 43 -7 c23 -4 56
-9 72 -11 185 -29 311 -86 425 -190 l35 -32 157 0 157 1 -14 27 c-24 47 -85
123 -147 182 -177 173 -432 276 -704 287 -17 1 -23 9 -28 44 -29 186 -148 327
-326 385 -87 28 -163 41 -292 48 -106 7 -108 6 -109 -15z"/>
</g>
</svg>
